:version 1.10
:name ASF
:units
  mass 1
  length 1
  angle deg
:documentation
  ASF file generated by Kaydara
:root
  axis xyz
  order  tx ty tz rx ry rz
  position 0 0 0
  orientation 0 0 0
:bonedata
  begin
    id 1
    name RightUpLegDummy
    direction -1 2.30186e-007 8.31532e-007
    length 4.04083
    axis 0 0 0 xyz
  end
  begin
    id 2
    name RightUpLeg
    direction -0.000919234 -0.999985 0.00544864
    length 17.4221
    axis -3.80308 -0.00076134 -0.0523649 xyz
    dof rx ry rz
  end
  begin
    id 3
    name RightLeg
    direction -0.000919271 -0.999984 -0.00555045
    length 17.1239
    axis 4.00314 0.0181274 -0.183583 xyz
    dof rx ry rz
  end
  begin
    id 4
    name RightFoot
    direction -2.57843e-005 -4.04509e-007 1
    length 6.72091
    axis 8.18909e-005 -0.122003 -0.403008 xyz
    dof rx ry rz
  end
  begin
    id 5
    name RightToes
    direction 0.00116825 -0.014069 0.9999
    length 3.85082
    axis 0.000514414 0.540638 -0.356797 xyz
    dof rx ry rz
  end
  begin
    id 6
    name SpineDummy
    direction 0.0168869 0.966876 -0.254689
    length 6.99894
    axis 0 0 0 xyz
  end
  begin
    id 7
    name Spine
    direction -0.0132008 0.999903 0.00446247
    length 11.1999
    axis -0.00148109 0.00725429 0.756411 xyz
    dof rx ry rz
  end
  begin
    id 8
    name Spine1
    direction 0 0 0
    length 0
    axis -0.000934958 0.0245693 1.46543 xyz
    dof rx ry rz
  end
  begin
    id 9
    name HEadDummy
    direction -0.0255732 0.999672 0.00128215
    length 3.43865
    axis -0.000934958 0.0245693 1.46543 xyz
  end
  begin
    id 10
    name HEad
    direction -0.0472656 0.980052 0.19304
    length 5.12695
    axis -0.000934954 0.0245693 1.46543 xyz
    dof rx ry rz
  end
  begin
    id 11
    name LeftShoulder1Dummy
    direction 0.953098 0.301717 -0.023914
    length 3.68488
    axis -0.000934958 0.0245693 1.46543 xyz
  end
  begin
    id 12
    name LeftShoulder1
    direction 0.962466 0.271167 0.0112566
    length 3.13809
    axis -0.000934958 0.0245693 1.46543 xyz
    dof rx ry rz
  end
  begin
    id 13
    name LeftArm
    direction 0.999943 0.00455037 -0.00961766
    length 11.3419
    axis -23.1648 0.685459 1.22814 xyz
    dof rx ry rz
  end
  begin
    id 14
    name LeftForeArm
    direction 0.999332 0.0131969 0.0340885
    length 8.70632
    axis -9.90633 0.618216 0.0826942 xyz
    dof rx ry rz
  end
  begin
    id 15
    name LeftHand
    direction 0.994373 -0.0366703 0.0993905
    length 5.32135
    axis 0.00675269 0.680415 0.445699 xyz
    dof rx ry rz
  end
  begin
    id 16
    name RightShoulderDummy
    direction -0.967298 0.252589 -0.0230903
    length 3.68488
    axis -0.000934958 0.0245693 1.46543 xyz
  end
  begin
    id 17
    name RightShoulder
    direction -0.975062 0.221602 0.0120823
    length 3.13809
    axis 0.216257 0.0246515 1.45863 xyz
    dof rx ry rz
  end
  begin
    id 18
    name RightArm
    direction -0.99886 -0.00851186 -0.0469687
    length 10.3947
    axis -23.196 0.23503 -0.532632 xyz
    dof rx ry rz
  end
  begin
    id 19
    name RightForeArm
    direction -0.99909 0.00114866 0.0426317
    length 8.68355
    axis -9.91764 -0.134943 0.610517 xyz
    dof rx ry rz
  end
  begin
    id 20
    name RightHand
    direction -0.992888 -0.0489538 0.10852
    length 5.28593
    axis -0.00275396 -0.197403 0.246414 xyz
    dof rx ry rz
  end
  begin
    id 21
    name LeftUpLegDummy
    direction 1 -2.30186e-007 -8.31532e-007
    length 4.04083
    axis 0 0 0 xyz
  end
  begin
    id 22
    name LeftUpLeg
    direction -0.000920097 -1 2.79241e-006
    length 17.4221
    axis -3.48782 0.00143434 -0.0532288 xyz
    dof rx ry rz
  end
  begin
    id 23
    name LeftLeg
    direction -0.000920097 -1 2.7912e-006
    length 17.1239
    axis 3.68162 -0.00806512 -0.0529896 xyz
    dof rx ry rz
  end
  begin
    id 24
    name LeftFoot
    direction -2.57845e-005 -3.987e-007 1
    length 6.72091
    axis 3.02372e-005 -0.00147829 -0.214229 xyz
    dof rx ry rz
  end
  begin
    id 25
    name LeftToes
    direction 0.00813577 -0.00488255 0.999955
    length 3.85048
    axis 3.89895e-005 -0.0014783 -0.214229 xyz
    dof rx ry rz
  end
:hierarchy
  begin
    root RightUpLegDummy SpineDummy LeftUpLegDummy
    RightUpLegDummy RightUpLeg
    RightUpLeg RightLeg
    RightLeg RightFoot
    RightFoot RightToes
    SpineDummy Spine
    Spine Spine1
    Spine1 HEadDummy LeftShoulder1Dummy RightShoulderDummy
    HEadDummy HEad
    LeftShoulder1Dummy LeftShoulder1
    LeftShoulder1 LeftArm
    LeftArm LeftForeArm
    LeftForeArm LeftHand
    RightShoulderDummy RightShoulder
    RightShoulder RightArm
    RightArm RightForeArm
    RightForeArm RightHand
    LeftUpLegDummy LeftUpLeg
    LeftUpLeg LeftLeg
    LeftLeg LeftFoot
    LeftFoot LeftToes
  end

:SAMPLES-PER-SECOND 30
:FULLY-SPECIFIED
:DEGREES
1
root  -14.5744 34.4981 -14.9044 -170.926 -2.0284 179.728
RightUpLeg  -8.49501 -18.228 -1.65601
RightLeg  7.14785 -0.975697 -0.0439653
RightFoot  3.24904 0.00957915 0.0915207
RightToes  -25.5412 -0.114676 -0.218226
Spine  -2.4679 0.0431393 0.151259
Spine1  -5.03626 0.187565 0.78228
HEad  -61.844 -3.09694 7.14034
LeftShoulder1  -1.94126e-019 -3.10601e-018 -2.51263e-017
LeftArm  -17.1932 25.7335 -79.7731
LeftForeArm  30.9212 -14.5658 -2.34464
LeftHand  -0.373266 0.187789 8.37415
RightShoulder  -4.96962e-017 0 -2.36833e-017
RightArm  -39.0984 -22.6737 74.09
RightForeArm  57.2761 12.1978 1.46276
RightHand  -0.33752 -1.60406 -10.2396
LeftUpLeg  -7.88661 2.61719 3.49827
LeftLeg  6.59611 11.4322 0.577204
LeftFoot  5.01921 -0.0478287 1.11497
LeftToes  -25.1975 2.03064e-006 1.83538e-008
2
root  -14.5863 34.4981 -14.9093 -170.85 -2.03699 179.715
RightUpLeg  -8.50291 -18.2861 -1.65918
RightLeg  7.01885 -0.943891 -0.0483269
RightFoot  3.29515 0.00957915 0.0915207
RightToes  -25.5219 -0.114676 -0.218226
Spine  -2.48087 0.0499047 0.124586
Spine1  -5.05997 0.187565 0.736891
HEad  -62.0294 -3.22994 7.25271
LeftShoulder1  -1.94126e-019 -3.10601e-018 -2.51263e-017
LeftArm  -17.02 25.7597 -79.8526
LeftForeArm  30.8229 -14.7665 -2.36782
LeftHand  -0.375247 0.132305 8.30243
RightShoulder  -4.96962e-017 0 -2.36833e-017
RightArm  -36.347 -23.155 74.1356
RightForeArm  57.0828 12.8535 1.39542
RightHand  -0.342111 -1.48303 -10.0928
LeftUpLeg  -7.92103 2.56227 3.46355
LeftLeg  6.52774 11.4821 0.566057
LeftFoot  5.01921 -0.0478287 1.11497
LeftToes  -25.1377 2.03064e-006 1.83538e-008
3
root  -14.5918 34.4981 -14.9143 -170.795 -2.04568 179.722
RightUpLeg  -8.49343 -18.3087 -1.64757
RightLeg  6.90297 -0.925276 -0.0508795
RightFoot  3.34624 0.00957915 0.0915207
RightToes  -25.5471 -0.114676 -0.218226
Spine  -2.48636 0.0521721 0.109935
Spine1  -5.0692 0.18701 0.713316
HEad  -62.148 -3.30569 7.29248
LeftShoulder1  -1.94126e-019 -3.10601e-018 -2.51263e-017
LeftArm  -16.863 25.8154 -79.907
LeftForeArm  30.6847 -15.0042 -2.39399
LeftHand  -0.375684 0.189738 8.27585
RightShoulder  -4.96962e-017 0 -2.36833e-017
RightArm  -34.2737 -23.5315 74.1597
RightForeArm  56.8945 13.3677 1.33309
RightHand  -0.346246 -1.38377 -9.95923
LeftUpLeg  -7.94859 2.55719 3.46304
LeftLeg  6.48601 11.4774 0.557511
LeftFoot  5.01921 -0.0478287 1.11497
LeftToes  -25.1518 2.03064e-006 1.83538e-008
4
root  -14.5979 34.4984 -14.92 -170.729 -2.04793 179.725
RightUpLeg  -8.48944 -18.2695 -1.63673
RightLeg  6.78421 -0.967537 -0.0512453
RightFoot  3.37712 0.00957915 0.0915207
RightToes  -25.4505 -0.114676 -0.218226
Spine  -2.48026 0.0294909 0.0932845
Spine1  -5.05479 0.136438 0.686033
HEad  -62.3858 -3.24431 7.38838
LeftShoulder1  -1.94126e-019 -3.10601e-018 -2.51263e-017
LeftArm  -16.7662 25.8668 -79.994
LeftForeArm  30.5766 -15.2664 -2.42463
LeftHand  -0.375046 0.150485 8.30776
RightShoulder  -4.96962e-017 0 -2.36833e-017
RightArm  -32.1361 -23.9104 74.19
RightForeArm  56.6217 13.9242 1.26083
RightHand  -0.354208 -1.18661 -9.69878
LeftUpLeg  -7.98049 2.52276 3.45547
LeftLeg  6.43811 11.5148 0.54973
LeftFoot  5.01817 -0.0478287 1.11497
LeftToes  -25.1557 2.03064e-006 1.83538e-008
5
root  -14.6048 34.4983 -14.9255 -170.673 -2.0323 179.732
RightUpLeg  -8.50846 -18.2694 -1.62432
RightLeg  6.71683 -0.959493 -0.0496807
RightFoot  3.42775 0.00957915 0.0915207
RightToes  -25.5295 -0.114676 -0.218226
Spine  -2.47423 0.00629376 0.084475
Spine1  -5.04035 0.0822765 0.67192
HEad  -62.6246 -3.24401 7.39641
LeftShoulder1  -1.94126e-019 -3.10601e-018 -2.51263e-017
LeftArm  -16.6768 25.8617 -80.106
LeftForeArm  30.6599 -15.3731 -2.43841
LeftHand  -0.377763 0.0740844 8.20875
RightShoulder  -4.96962e-017 0 -2.36833e-017
RightArm  -31.3333 -24.2154 74.2542
RightForeArm  56.5882 14.1666 1.2277
RightHand  -0.362497 -1.10118 -9.7401
LeftUpLeg  -8.0258 2.57736 3.44986
LeftLeg  6.44103 11.4719 0.548289
LeftFoot  5.00546 -0.0473946 1.10822
LeftToes  -25.1597 2.03064e-006 1.83538e-008
6
root  -14.6089 34.4967 -14.9285 -170.653 -1.99194 179.738
RightUpLeg  -8.55178 -18.2775 -1.61908
RightLeg  6.75276 -0.916559 -0.047984
RightFoot  3.41938 0.00957915 0.0915207
RightToes  -25.509 -0.114676 -0.218226
Spine  -2.46741 -0.0227647 0.0829206
Spine1  -5.02591 0.0198912 0.676208
HEad  -62.814 -3.1399 7.39121
LeftShoulder1  -1.94126e-019 -3.10601e-018 -2.51263e-017
LeftArm  -16.631 25.8585 -80.2267
LeftForeArm  30.6691 -15.3669 -2.44034
LeftHand  -0.375904 0.0639386 8.28667
RightShoulder  -4.96962e-017 0 -2.36833e-017
RightArm  -31.3078 -24.3148 74.2847
RightForeArm  56.5457 14.1243 1.23422
RightHand  -0.351881 -1.21011 -9.6858
LeftUpLeg  -8.06055 2.65008 3.44419
LeftLeg  6.49471 11.4397 0.557434
LeftFoot  4.97598 -0.0467626 1.0984
LeftToes  -25.1615 2.03064e-006 1.83538e-008
